<svg width="26" height="24" viewBox="0 0 26 24" fill="none" xmlns="http://www.w3.org/2000/svg">
    <path
        d="M10.0451 6.2797C10.0451 5.61692 9.5078 5.07962 8.845 5.07962H2.24378C1.581 5.07962 1.0437 5.61692 1.0437 6.2797V17.8C1.0437 18.4628 1.581 19.0001 2.24378 19.0001H8.845C9.5078 19.0001 10.0451 18.4628 10.0451 17.8V6.2797Z"
        stroke="currentColor"
        stroke-width="1.2"
        stroke-linecap="round"
        stroke-linejoin="round"
    />
    <path
        d="M17.5088 6.2002C17.5088 5.53739 16.9715 5.00009 16.3087 5.00009H13.9083C13.2455 5.00009 12.7082 5.53739 12.7082 6.2002V17.8C12.7082 18.4628 13.2455 19.0001 13.9083 19.0001H16.3087C16.9715 19.0001 17.5088 18.4628 17.5088 17.8V6.2002Z"
        stroke="currentColor"
        stroke-width="1.2"
        stroke-linecap="round"
        stroke-linejoin="round"
    />
    <path
        d="M24.965 6.2001C24.965 5.5373 24.4277 5 23.7649 5H21.3645C20.7017 5 20.1644 5.5373 20.1644 6.2001V17.7999C20.1644 18.4627 20.7017 19 21.3645 19H23.7649C24.4277 19 24.965 18.4627 24.965 17.7999V6.2001Z"
        stroke="currentColor"
        stroke-width="1.2"
        stroke-linecap="round"
        stroke-linejoin="round"
    />
</svg>
