<svg width="26" height="24" viewBox="0 0 26 24" fill="none" xmlns="http://www.w3.org/2000/svg">
    <path
        d="M17.605 6.2797C17.605 5.61692 17.0677 5.07962 16.405 5.07962H9.8037C9.1409 5.07962 8.6036 5.61692 8.6036 6.2797V17.8C8.6036 18.4628 9.1409 19.0001 9.8037 19.0001H16.405C17.0677 19.0001 17.605 18.4628 17.605 17.8V6.2797Z"
        stroke="currentColor"
        stroke-width="1.2"
        stroke-linecap="round"
        stroke-linejoin="round"
    />
    <path
        d="M25.0688 6.2002C25.0688 5.53739 24.5315 5.00009 23.8687 5.00009H21.4682C20.8054 5.00009 20.2682 5.53739 20.2682 6.2002V17.8C20.2682 18.4628 20.8054 19.0001 21.4682 19.0001H23.8687C24.5315 19.0001 25.0688 18.4628 25.0688 17.8V6.2002Z"
        stroke="currentColor"
        stroke-width="1.2"
        stroke-linecap="round"
        stroke-linejoin="round"
    />
    <path
        d="M5.7303 6.2001C5.7303 5.5373 5.193 5 4.5302 5H2.1298C1.467 5 0.9297 5.5373 0.9297 6.2001V17.7999C0.9297 18.4627 1.467 19 2.1298 19H4.5302C5.193 19 5.7303 18.4627 5.7303 17.7999V6.2001Z"
        stroke="currentColor"
        stroke-width="1.2"
        stroke-linecap="round"
        stroke-linejoin="round"
    />
</svg>
