<svg xmlns="http://www.w3.org/2000/svg" width="24" height="24" viewBox="0 0 24 24">
  <mask id="cutMask">
    <path
      fill="none"
      stroke="white"
      stroke-linecap="round"
      stroke-linejoin="round"
      stroke-width="1.5"
      d="M8.75 3.75h-2a2 2 0 0 0-2 2v12.5a2 2 0 0 0 2 2h2m6.5-16.5h2a2 2 0 0 1 2 2v12.5a2 2 0 0 1-2 2h-2"
    />
    <circle cx="18" cy="18" r="7" fill="black" />
  </mask>

  <g mask="url(#cutMask)">
    <rect width="24" height="24" fill="currentColor" />
  </g>

  <path
    fill="currentColor"
    fill-rule="evenodd"
    d="M17.5 23a5.5 5.5 0 1 0 0-11a5.5 5.5 0 0 0 0 11m0-8.993a.5.5 0 0 1 .5.5V17h2.493a.5.5 0 1 1 0 1H18v2.493a.5.5 0 1 1-1 0V18h-2.493a.5.5 0 1 1 0-1H17v-2.493a.5.5 0 0 1 .5-.5"
    clip-rule="evenodd"
  />
</svg>
